<svg xmlns="http://www.w3.org/2000/svg" xmlns:xlink="http://www.w3.org/1999/xlink" width="163.049" height="138.741" viewBox="0 0 163.049 138.741"><defs><style>.a{fill:url(#a);}.b{fill:#fff;}</style><linearGradient id="a" x2="1" gradientUnits="objectBoundingBox"><stop offset="0" stop-color="#834f2a"/><stop offset="0.5" stop-color="#dba173"/><stop offset="1" stop-color="#834f2a"/></linearGradient></defs><g transform="translate(50.353 0)"><path class="a" d="M0,767.448v2.764c.685,4.633,15.679,17.941,19.11,17.941H43.232c3.43,0,18.425-13.308,19.11-17.942v-2.764H0Z" transform="translate(0 -725.737)"/><g transform="translate(43.441 21.388)"><path class="a" d="M800.546,398.992c.111-.086,2.723-2.132,2.862-4.654h0a.78.78,0,0,0-1.558-.086h0c-.1,1.806-2.238,3.489-2.259,3.506a.728.728,0,0,1,.138-.086l-.137.085a.78.78,0,0,0,.954,1.235Z" transform="translate(-799.289 -393.515)"/></g><g transform="translate(42.283 37.163)"><path class="a" d="M781.658,683.892c-.956-.248-2.942-.281-3.615,1.372h0a.78.78,0,0,0,1.446.587h0c.326-.8,1.761-.454,1.776-.45h0a.78.78,0,1,0,.392-1.51Z" transform="translate(-777.986 -683.766)"/></g><path class="a" d="M1030.89,623.19c-2.792,1.279-6.151,4.757-4.941,5.393s2.937-.4,4.785-1.859S1032.97,622.236,1030.89,623.19Z" transform="translate(-969.949 -589.147)"/><g transform="translate(34.453 24.298)"><path class="a" d="M638.105,447.061c-1.238.052-2.969.312-3.7,1.974l-.112.25a2.294,2.294,0,0,0-.278,1.854,2.482,2.482,0,0,0,1.505,1.2c1.863.729,4.093.321,5.076-.929a2.562,2.562,0,0,0,.076-2.727A2.793,2.793,0,0,0,638.105,447.061Zm1.268,3.38a3.116,3.116,0,0,1-3.281.441c-.536-.21-.633-.343-.637-.348a.115.115,0,0,1,.016.051,2.965,2.965,0,0,1,.248-.66l.118-.265c.208-.474.648-.97,2.331-1.04a1.294,1.294,0,0,1,1.117.769A1.12,1.12,0,0,1,639.374,450.441Z" transform="translate(-633.912 -447.059)"/></g><g transform="translate(24.307 25.083)"><path class="a" d="M451.568,461.524c-1.311-.145-2.319.742-3.24,1.663a2.847,2.847,0,0,0-1.087,2.009,2.36,2.36,0,0,0,1,1.676l.27.228c1.189,1.007,2.015,1.569,3.91.463,1.7-.992,1.805-1.765,1.766-2.747,0-.1-.009-.214-.009-.325A3.589,3.589,0,0,0,451.568,461.524Zm1.052,2.967c0,.142,0,.272.01.387.024.584.03.74-.992,1.337-1.039.606-1.141.52-2.115-.306l-.28-.236c-.32-.267-.438-.462-.442-.547-.009-.2.456-.66.631-.835.8-.8,1.4-1.278,1.965-1.215l-.012,0C451.724,463.149,452.621,463.984,452.621,464.492Z" transform="translate(-447.24 -461.509)"/></g><path class="a" d="M506.915,354.781c-1.569-.713-5.317-2.165-6.232-.242a6.144,6.144,0,0,1-.939,1.243c-.607.68-1.18,1.323-.989,2.081a1.422,1.422,0,0,0,1,.964c1.833.666,4.126,1.315,5.6.412a4.884,4.884,0,0,0,1.834-3.049c.037-.139.084-.31.1-.361A.812.812,0,0,0,506.915,354.781Zm-2.373,3.126c-.978.6-3.226-.174-4.129-.5.136-.182.339-.412.495-.586a7.259,7.259,0,0,0,1.178-1.6c.292-.24,1.858.034,3.557.713A3.351,3.351,0,0,1,504.542,357.908Zm25.289-7.507c-.07-1.694-.3-2.084-.995-2.85l-.095-.105a2.372,2.372,0,0,0-2.258-.783,4.1,4.1,0,0,0-2.817,2.392,8.285,8.285,0,0,1-.355.757c-.442.866-.992,1.944-.017,3.219,1.257,1.643,2.587,1.75,4.445.356a9.758,9.758,0,0,1,1.007-.663C529.716,352.153,529.888,351.784,529.831,350.4Zm-24.577-10.58c-1.085-.164-3.673-.4-4.251.992a9.4,9.4,0,0,0-.3,3.416.78.78,0,0,0,.667.712c.349.051,3.454.468,4.931-.27a2.334,2.334,0,0,0,1.1-2.643A2.559,2.559,0,0,0,505.254,339.821Z" transform="translate(-471.612 -321.234)"/><path class="a" d="M36.42,24.243h0l.021,0c-.333-2.24-.525-3.563-.859-5.478C33.7,8,31.983-.149,30.782,0a.031.031,0,0,0-.014,0h-.009l-.009,0-.014,0c-1.2.166-.269,9.385,1.491,19.964.319,1.919.509,2.648.9,4.915,0,0-3.452,2.607-2.73,5.924a59.726,59.726,0,0,0,3.681,9.317c-.688-3.746-.873-8.569.064-8.569.624-.156,2.146,4.993,3.043,8.153,0,0-.2-8.621.546-8.66.947-.05,1.866,4.513,2.17,8.309a59.75,59.75,0,0,0,1.143-9.953C40.878,26.018,36.42,24.243,36.42,24.243Z" transform="translate(-28.554 0.002)"/><path class="a" d="M309.833,546.737c-.2-.46-1.05-1.756-4.129-1.064a3.524,3.524,0,0,0-.94-2.548,2.912,2.912,0,0,0-3.04-.873,3.447,3.447,0,0,0-2.132,2.674,3.418,3.418,0,0,0-2.857.04,2.23,2.23,0,0,0-1.183,1.944c-.016,1.231.9,2.474,2.515,3.409a.78.78,0,1,0,.783-1.349c-1.291-.748-1.744-1.544-1.738-2.039a.663.663,0,0,1,.37-.595,2.374,2.374,0,0,1,2.276.408.78.78,0,0,0,1.189-.576c.147-1.329.61-2.218,1.27-2.437a1.4,1.4,0,0,1,1.409.461,2.1,2.1,0,0,1,.343,2.282.78.78,0,0,0,.973,1.031c2.3-.777,3.337-.432,3.456-.155.133.31-.355,1.31-2.082,2.219a.78.78,0,1,0,.727,1.381C309.286,549.771,310.407,548.077,309.833,546.737Zm-29.268-.484a4.237,4.237,0,0,0,.421-3.273,2.514,2.514,0,0,0-1.931-1.946,2.652,2.652,0,0,0-2.311.978,2.818,2.818,0,0,0-1.809-1.394,1.787,1.787,0,0,0-1.722.663c-.776.949-.8,2.638-.071,4.516a.78.78,0,1,0,1.454-.567c-.662-1.7-.421-2.66-.175-2.962a.239.239,0,0,1,.248-.112c.246.042.77.421,1.181,1.569a.78.78,0,0,0,1.386.166c.687-1.041,1.27-1.361,1.587-1.313.268.04.529.37.665.839a2.526,2.526,0,0,1-.707,2.573.781.781,0,0,0,.263,1.328c1.861.629,2.392,1.482,2.294,1.9-.1.439-.9.818-2.165.654a.78.78,0,1,0-.2,1.547c2.319.3,3.623-.713,3.886-1.849C283.093,548.555,282.573,547.219,280.565,546.253Z" transform="translate(-257.795 -511.209)"/><g transform="translate(16.662 35.039)"><path class="a" d="M310.195,646.028a3.258,3.258,0,0,0-1.944-1.329,1.768,1.768,0,0,0-1.4.446h0a.78.78,0,0,0,1.021,1.18h0c.1-.088.155-.082.191-.077a1.789,1.789,0,0,1,.861.682l0,0a.78.78,0,1,0,1.275-.9Z" transform="translate(-306.579 -644.686)"/></g></g><g transform="translate(0 71.933)"><path class="b" d="M46.133,353.493H47.5l-2.173,8.444H43.649c.373-4.408,0-6.023-2.546-6.023h-5.65V388.76c0,1.552,1.18,1.987,4.408,2.3v1.614c-4.781-.186-9.934-.186-14.715,0v-1.614c3.229-.31,4.408-.745,4.408-2.3V355.914H24.463c-2.546,0-3.167.993-5.65,6.023H17.136l2.235-8.444h1.366a15.5,15.5,0,0,0,5.278.621h14.84A15.262,15.262,0,0,0,46.133,353.493Zm14.219,7.575c7.265,0,14.032,5.712,14.032,15.771,0,10.431-6.768,16.454-13.784,16.454-7.265,0-14.032-6.023-14.032-15.957C46.567,366.78,53.335,361.068,60.351,361.068Zm7.7,17.261c0-9.189-3.353-15.585-8.568-15.585-4.16,0-6.706,4.036-6.706,13.1,0,9.189,3.353,15.647,8.631,15.647,4.16,0,6.644-4.036,6.644-13.163ZM95,360.943c3.1,0,4.967,1.49,4.967,3.353a2.711,2.711,0,0,1-2.732,2.98c-2.856,0-2.359-2.856-5.34-2.856-3.6,0-5.278,4.781-5.774,5.9V388.76c0,1.552,1.739,2.049,3.6,2.3v1.614a112.025,112.025,0,0,0-12.915,0v-1.614c2.049-.248,3.725-.745,3.725-2.3V367.711c0-2.111-1.3-2.67-3.725-2.359v-1.614c4.781-.745,6.768-2.856,8.01-2.856.869,0,1.366.559,1.3,1.552l-.931,5.961C87.3,363.986,90.092,360.943,95,360.943Zm22.725,29.8a7.989,7.989,0,0,1-5.65,2.359c-4.16,0-7.2-2.049-7.2-7.823V363.427h-2.794a.521.521,0,0,1-.559-.559v-.745a.556.556,0,0,1,.559-.559c3.85,0,5.464-2.67,6.271-8.444h2.235v8.444h6.706a.556.556,0,0,1,.559.559v.745a.521.521,0,0,1-.559.559h-6.706v23.035c0,2.235.621,4.346,3.167,4.346a4.895,4.895,0,0,0,3.974-2.235Zm9.251-35.019a3.154,3.154,0,0,1-3.1-3.1,3.187,3.187,0,0,1,3.1-3.042,3.074,3.074,0,1,1,0,6.147Zm3.353,33.032c0,1.552,1.676,2.049,3.663,2.3v1.614c-4.346-.186-8.631-.186-12.977,0v-1.614c2.049-.248,3.663-.745,3.663-2.3V367.277c0-2.049-1.3-2.608-3.725-2.484v-1.614c4.905-.683,6.892-2.3,8.134-2.3.931,0,1.614.373,1.614,1.49,0,1.614-.373,3.85-.373,7.7Zm13.1-33.032a3.074,3.074,0,0,1,0-6.147,3.074,3.074,0,1,1,0,6.147Zm2.173,5.154a1.358,1.358,0,0,1,1.552,1.49c0,1.614-.373,3.85-.373,7.7v21.049c0,10.99-4.843,14.9-12.853,14.9l-.248-1.676c4.967-.435,7.451-3.539,7.451-10.866v-26.2c0-2.049-1.242-2.608-3.663-2.484v-1.614C142.31,362.5,144.3,360.881,145.6,360.881Zm30.921,25.892c0,2.111,1.242,2.546,3.663,2.3v1.738c-4.843,1.118-6.519,2.608-8.072,2.608-.807,0-1.3-.435-1.242-1.49l.31-4.719c-1.49,2.732-4.595,6.209-9.686,6.209-4.16,0-9.065-2.049-9.065-7.885,0-5.4,3.415-9.314,18.441-12.48v-1.863c0-5.9-.062-8.568-3.477-8.568-9.686,0-5.091,9.251-10.121,9.251a2.43,2.43,0,0,1-2.67-2.608c0-4.471,5.712-8.258,12.853-8.258,7.327,0,9.065,2.608,9.065,10.183Zm-13.1,4.1c4.1,0,6.644-4.284,7.451-6.271v-9.81c-11.425,2.546-12.418,7.513-12.418,10.431C158.454,388.636,160.316,390.871,163.421,390.871Z" transform="translate(-17.136 -349.581)"/></g><g transform="translate(25.896 133.317)"><path class="a" d="M5.792,44.725a1.259,1.259,0,0,0,.742-.172.571.571,0,0,0,.232-.487.629.629,0,0,0-.079-.322.823.823,0,0,0-.225-.244,1.882,1.882,0,0,0-.356-.2q-.21-.094-.48-.184T5.106,42.9a1.755,1.755,0,0,1-.442-.288,1.328,1.328,0,0,1-.307-.412,1.313,1.313,0,0,1-.116-.577,1.354,1.354,0,0,1,.487-1.105,2.025,2.025,0,0,1,1.326-.4,3.141,3.141,0,0,1,.865.109,2.651,2.651,0,0,1,.6.236l-.292.764a2.238,2.238,0,0,0-.558-.217,2.6,2.6,0,0,0-.626-.075.988.988,0,0,0-.6.157.517.517,0,0,0-.214.442.584.584,0,0,0,.071.3.732.732,0,0,0,.2.221,1.778,1.778,0,0,0,.307.18q.176.082.386.157.367.135.656.273a1.852,1.852,0,0,1,.487.33,1.29,1.29,0,0,1,.3.45,1.664,1.664,0,0,1,.1.626,1.3,1.3,0,0,1-.5,1.09,2.347,2.347,0,0,1-1.457.386A3.857,3.857,0,0,1,5.2,45.5a3.765,3.765,0,0,1-.472-.1,3.217,3.217,0,0,1-.356-.124,2.191,2.191,0,0,1-.24-.116l.277-.772a3.2,3.2,0,0,0,.547.225,2.7,2.7,0,0,0,.832.112Zm9.268-4.488H16v5.192H15.06V40.237Zm9.8,0q.165.285.367.7t.412.865q.21.453.416.922t.378.865l.375-.865q.2-.468.412-.922t.412-.865q.2-.412.367-.7h.854q.067.569.127,1.21t.109,1.311q.049.671.09,1.349t.071,1.322h-.929q-.03-.907-.071-1.866t-.124-1.858q-.082.172-.195.412t-.24.521q-.127.281-.258.581l-.255.581q-.124.281-.229.524l-.18.416h-.7q-.075-.172-.18-.42t-.229-.528l-.255-.581q-.131-.3-.258-.577l-.24-.521q-.112-.244-.195-.408-.082.9-.124,1.858t-.071,1.866h-.929q.03-.644.071-1.334t.09-1.367q.049-.678.109-1.315t.127-1.176h.877ZM38.3,40.184a3.064,3.064,0,0,1,1.735.412,1.451,1.451,0,0,1,.6,1.289,1.751,1.751,0,0,1-.161.783,1.353,1.353,0,0,1-.468.532,2.172,2.172,0,0,1-.749.3,4.728,4.728,0,0,1-1.012.1h-.472v1.828h-.944V40.312a4.686,4.686,0,0,1,.731-.1Q37.965,40.184,38.3,40.184Zm.067.817q-.36,0-.592.022v1.768h.457a2.319,2.319,0,0,0,1.049-.191.739.739,0,0,0,.367-.723.857.857,0,0,0-.1-.427.7.7,0,0,0-.27-.27,1.268,1.268,0,0,0-.408-.139A2.941,2.941,0,0,0,38.369,41Zm12.895,3.611v.817H47.982V40.237h.944v4.376h2.338Zm8.946-2.075q.337-.562.659-1.139t.584-1.161H62.5q-.42.794-.873,1.577t-.97,1.577v2.038h-.944V43.406q-.517-.8-.974-1.588t-.877-1.581h1.109q.262.584.577,1.161t.659,1.139Zm19.114-2.353a3.064,3.064,0,0,1,1.735.412,1.451,1.451,0,0,1,.6,1.289,1.751,1.751,0,0,1-.161.783,1.353,1.353,0,0,1-.468.532,2.172,2.172,0,0,1-.749.3,4.728,4.728,0,0,1-1.011.1H78.8v1.828h-.944V40.312a4.686,4.686,0,0,1,.731-.1q.4-.026.738-.026Zm.067.817q-.36,0-.592.022v1.768h.457a2.319,2.319,0,0,0,1.049-.191.739.739,0,0,0,.367-.723.857.857,0,0,0-.1-.427.7.7,0,0,0-.27-.27,1.268,1.268,0,0,0-.408-.139A2.941,2.941,0,0,0,79.391,41Zm12.895,3.611v.817H89V40.237h.944v4.376Zm10.647.817q-.1-.307-.217-.607t-.217-.614h-2.188q-.1.315-.214.618t-.214.6H98.9q.292-.832.554-1.536t.513-1.334q.251-.629.5-1.2t.509-1.124h.892q.262.554.509,1.124t.5,1.2q.251.629.517,1.334t.558,1.536h-1.019ZM101.4,41.241q-.172.4-.393.967t-.461,1.236h1.708q-.24-.667-.465-1.244T101.4,41.241Zm13.187,4.188q-.255-.427-.569-.918t-.652-.989q-.337-.5-.686-.967t-.663-.843v3.716h-.929V40.237h.772q.3.315.644.746t.693.9q.348.465.674.933t.581.873V40.237h.937v5.192Z" transform="translate(-4.136 -40.117)"/></g></svg>