<svg xmlns="http://www.w3.org/2000/svg" width="23.985" height="24.089" viewBox="0 0 23.985 24.089"><defs><style>.a{fill:none;stroke:#fff;stroke-linecap:round;stroke-linejoin:round;stroke-width:1.4px;}</style></defs><g transform="translate(-1272.8 -816.111)"><path class="a" d="M1293.5,829.5v8a2,2,0,0,1-2,2h-16a2,2,0,0,1-2-2v-16a2,2,0,0,1,2-2h7.625"/><path class="a" d="M1286.5,830.5h-4v-4l9.293-9.293a1,1,0,0,1,1.414,0l2.586,2.586a1,1,0,0,1,0,1.414Z"/><line class="a" x2="4" y2="4" transform="translate(1289.5 819.5)"/><line class="a" x1="1" y2="1" transform="translate(1281.5 830.5)"/></g></svg>